<svg width="48" height="48" viewBox="0 0 48 48" fill="none" xmlns="http://www.w3.org/2000/svg">
<rect width="48" height="48" rx="10" fill="white"/>
<path d="M8 6C7.46957 6 6.96086 6.21071 6.58579 6.58579C6.21071 6.96086 6 7.46957 6 8C6 17.0174 9.58213 25.6654 15.9584 32.0416C22.3346 38.4179 30.9826 42 40 42C40.5304 42 41.0391 41.7893 41.4142 41.4142C41.7893 41.0391 42 40.5304 42 40V33C42 32.4696 41.7893 31.9609 41.4142 31.5858C41.0391 31.2107 40.5304 31 40 31C37.52 31 35.1 30.6 32.86 29.86C32.16 29.64 31.38 29.8 30.82 30.36L26.42 34.76C20.7509 31.8607 16.1393 27.2491 13.24 21.58L17.64 17.16C18.2 16.62 18.36 15.84 18.14 15.14C17.4 12.9 17 10.48 17 8C17 7.46957 16.7893 6.96086 16.4142 6.58579C16.0391 6.21071 15.5304 6 15 6M32 6V12H26V16H32V22H36V16H42V12H36V6" fill="#1B1B23"/>
</svg>
